# xmcd
#
# Track frame offsets:
#	150
#	21639
#	41206
#	59538
#	78013
#	96048
#	114629
#	132441
#	148614
#	166060
#	184901
#	201437
#	222436
#	246666
#	270918
#	291106
#	310706
#
# Disc length: 4399 seconds
#
# Revision: 2
# Processed by: cddbd v1.5.2PL0 Copyright (c) Steve Scherf et al.
# Submitted via: audiograbber 1.83.01
#
DISCID=05112d11
DTITLE=Blige, Mary J. - The breakthrough
DYEAR=2005
DGENRE=Soul
TTITLE0=No one will do
TTITLE1=Enough cryin (feat. Brook)
TTITLE2=About you (feat. William)
TTITLE3=Be without you
TTITLE4=Gonna breakthrough (feat. Brook)
TTITLE5=Good woman down
TTITLE6=Take me as I am
TTITLE7=Baggage
TTITLE8=Can't hide from luv (feat. Jay-Z)
TTITLE9=MJB da MVP
TTITLE10=Can't get enough
TTITLE11=Ain't really love
TTITLE12=I found my everything (feat. Raphael Saadiq)
TTITLE13=Father in you
TTITLE14=Alone (feat. Dave Young)
TTITLE15=One (with U2)
TTITLE16=So lady (feat. Raphael Saadiq)
EXTD=
EXTT0=
EXTT1=
EXTT2=
EXTT3=
EXTT4=
EXTT5=
EXTT6=
EXTT7=
EXTT8=
EXTT9=
EXTT10=
EXTT11=
EXTT12=
EXTT13=
EXTT14=
EXTT15=Mary J. Blige with U2
EXTT16=
PLAYORDER=
